<svg width="25" height="24" viewBox="0 0 25 24" fill="none" xmlns="http://www.w3.org/2000/svg">
<path d="M7.33314 19C6.60992 18.9996 5.89539 18.8423 5.23885 18.5389C4.58231 18.2356 3.99939 17.7935 3.53031 17.243C3.06122 16.6925 2.71714 16.0468 2.52179 15.3505C2.32644 14.6542 2.28448 13.9237 2.3988 13.2096C2.51312 12.4955 2.78101 11.8146 3.18397 11.2141C3.58694 10.6135 4.11539 10.1075 4.73287 9.73101C5.35035 9.35449 6.04217 9.1164 6.76059 9.03318C7.47901 8.94996 8.20693 9.02358 8.89414 9.24897C9.52871 7.7666 10.6555 6.54868 12.0841 5.80092C13.5127 5.05315 15.1556 4.82139 16.7354 5.14476C18.3151 5.46813 19.7348 6.32683 20.7547 7.57581C21.7745 8.82478 22.3321 10.3875 22.3331 12C22.3331 13.8565 21.5956 15.637 20.2829 16.9497C18.9701 18.2625 17.1897 19 15.3331 19H7.33314ZM7.33314 17H15.3331C16.2361 16.9996 17.1221 16.7546 17.8971 16.2912C18.672 15.8277 19.307 15.1631 19.7346 14.3678C20.1623 13.5725 20.3665 12.6762 20.3257 11.7742C20.2849 10.8721 20.0007 9.99794 19.503 9.24447C19.0054 8.49099 18.313 7.88634 17.4994 7.49471C16.6858 7.10309 15.7813 6.9391 14.882 7.02016C13.9826 7.10122 13.1221 7.42431 12.3916 7.95512C11.6611 8.48594 11.088 9.20465 10.7331 10.035L10.0131 11.721L8.27114 11.149C7.85891 11.014 7.42231 10.97 6.99144 11.02C6.56057 11.07 6.14567 11.2129 5.77534 11.4388C5.40501 11.6646 5.08807 11.9681 4.84637 12.3283C4.60466 12.6885 4.44393 13.0968 4.37527 13.5251C4.30661 13.9534 4.33164 14.3915 4.44864 14.8092C4.56565 15.2269 4.77184 15.6142 5.053 15.9445C5.33416 16.2748 5.68361 16.5402 6.07725 16.7225C6.4709 16.9047 6.89937 16.9993 7.33314 17Z" fill="white"/>
</svg>
