<svg width="25" height="24" viewBox="0 0 25 24" fill="none" xmlns="http://www.w3.org/2000/svg">
<path d="M13.2158 2.25997C12.9548 2.08703 12.6478 1.99647 12.3347 2.00004C12.0216 2.00361 11.7168 2.10113 11.4598 2.27997L3.5948 7.75997C3.1748 8.05197 2.9248 8.52997 2.9248 9.04197V14.945C2.9248 15.47 3.1888 15.959 3.6268 16.248L11.6208 21.533C11.8764 21.7019 12.1759 21.792 12.4823 21.792C12.7887 21.792 13.0883 21.7019 13.3438 21.533L21.4968 16.147C21.9348 15.857 22.1978 15.367 22.1978 14.843V9.04297C22.1978 8.51897 21.9348 8.02997 21.4978 7.73997L13.2158 2.25997ZM19.3058 8.65297L16.2918 10.676L13.4658 8.62097L13.4478 4.57897L19.3048 8.65297H19.3058ZM11.4038 4.58297V8.53997L8.5068 10.564L5.6198 8.62697L11.4038 4.58297ZM4.8268 10.576L6.69681 11.829L4.8268 13.137V10.577V10.576ZM11.4518 19.009L5.6208 15.1L8.5338 13.063L11.4538 15.021V19.011L11.4518 19.009ZM10.3468 11.796L12.2348 10.476L14.4348 11.921L12.4848 13.231L10.3468 11.796ZM13.5138 19.009V15.019L16.3038 13.149L19.3068 15.124L13.5138 19.009ZM20.1388 13.204L18.1588 11.904L20.1388 10.575V13.205V13.204Z" fill="white"/>
</svg>
