<svg width="25" height="24" viewBox="0 0 25 24" fill="none" xmlns="http://www.w3.org/2000/svg">
<path d="M22.667 10.163C22.341 10.3463 22.0697 10.613 21.8809 10.9359C21.6922 11.2587 21.5928 11.626 21.593 12C21.593 12.789 22.026 13.476 22.667 13.837L21.95 16.243C21.5624 16.1763 21.164 16.2196 20.7997 16.3678C20.4355 16.516 20.12 16.7633 19.8891 17.0816C19.6583 17.3999 19.5212 17.7766 19.4934 18.1688C19.4656 18.5611 19.5483 18.9533 19.732 19.301L17.67 20.903C17.397 20.6792 17.0721 20.5277 16.7252 20.4624C16.3783 20.3971 16.0205 20.4202 15.6849 20.5295C15.3492 20.6387 15.0464 20.8307 14.8044 21.0877C14.5624 21.3447 14.3889 21.6584 14.3 22L11.01 21.992C10.9201 21.652 10.7464 21.34 10.5048 21.0845C10.2632 20.829 9.96138 20.6381 9.62698 20.5292C9.29258 20.4204 8.93623 20.3972 8.59052 20.4616C8.24481 20.526 7.92076 20.676 7.64799 20.898L5.58799 19.283C5.76657 18.9367 5.84554 18.5477 5.81613 18.1592C5.78672 17.7708 5.65008 17.3981 5.42142 17.0826C5.19275 16.7672 4.88104 16.5214 4.52097 16.3727C4.1609 16.2239 3.76661 16.178 3.38199 16.24L2.66699 13.825C2.98694 13.6398 3.25251 13.3737 3.437 13.0533C3.62148 12.733 3.7184 12.3697 3.71799 12C3.71799 11.22 3.29699 10.54 2.66699 10.175L3.38199 7.76C3.76669 7.82225 4.16112 7.77648 4.52134 7.6278C4.88156 7.47912 5.19344 7.23336 5.42224 6.9179C5.65104 6.60243 5.78777 6.22964 5.81722 5.84106C5.84666 5.45247 5.76765 5.06334 5.58899 4.717L7.64699 3.102C7.91976 3.32395 8.24381 3.47399 8.58952 3.53841C8.93523 3.60283 9.29158 3.57957 9.62598 3.47075C9.96038 3.36194 10.2622 3.17104 10.5038 2.91551C10.7454 2.65998 10.9191 2.34797 11.009 2.008L14.301 2C14.3899 2.34161 14.5634 2.65535 14.8054 2.91233C15.0474 3.16931 15.3502 3.36127 15.6859 3.47053C16.0215 3.5798 16.3793 3.60285 16.7262 3.53758C17.0731 3.4723 17.398 3.32079 17.671 3.097L19.731 4.7C19.5473 5.04769 19.4646 5.43989 19.4924 5.83215C19.5202 6.22442 19.6573 6.60106 19.8881 6.91938C20.119 7.23771 20.4345 7.485 20.7987 7.63322C21.163 7.78144 21.5614 7.82467 21.949 7.758L22.667 10.162V10.163ZM17.49 5.68C17.49 5.617 17.492 5.555 17.495 5.492L17.415 5.43C16.6361 5.64219 15.8119 5.61989 15.0456 5.36588C14.2793 5.11187 13.6049 4.63744 13.107 4.002L12.203 4.004C11.7069 4.63674 11.0357 5.10966 10.273 5.36392C9.5102 5.61817 8.6895 5.64255 7.91299 5.434L7.81799 5.51C7.85565 6.41268 7.59468 7.30259 7.07549 8.04197C6.55629 8.78135 5.80784 9.32895 4.94599 9.6C5.44881 10.2988 5.7189 11.1381 5.71799 11.999C5.71799 12.881 5.43799 13.714 4.94599 14.399C5.80784 14.67 6.55629 15.2176 7.07549 15.957C7.59468 16.6964 7.85565 17.5863 7.81799 18.489L7.91399 18.564C8.69038 18.3562 9.5107 18.3809 10.2732 18.6351C11.0356 18.8894 11.7066 19.3619 12.203 19.994L13.107 19.996C13.6046 19.3604 14.2788 18.8859 15.0449 18.6319C15.8111 18.3778 16.6352 18.3556 17.414 18.568L17.494 18.506C17.4528 17.6005 17.7122 16.7068 18.2319 15.9642C18.7515 15.2215 19.5022 14.6716 20.367 14.4C19.8637 13.701 19.5933 12.8613 19.594 12C19.594 11.118 19.875 10.284 20.367 9.6C19.533 9.33781 18.8044 8.81638 18.2871 8.11155C17.7699 7.40672 17.491 6.55526 17.491 5.681L17.49 5.68ZM12.667 16C11.6061 16 10.5887 15.5786 9.83856 14.8284C9.08842 14.0783 8.66699 13.0609 8.66699 12C8.66699 10.9391 9.08842 9.92172 9.83856 9.17157C10.5887 8.42143 11.6061 8 12.667 8C13.7279 8 14.7453 8.42143 15.4954 9.17157C16.2456 9.92172 16.667 10.9391 16.667 12C16.667 13.0609 16.2456 14.0783 15.4954 14.8284C14.7453 15.5786 13.7279 16 12.667 16ZM12.667 14C13.1974 14 13.7061 13.7893 14.0812 13.4142C14.4563 13.0391 14.667 12.5304 14.667 12C14.667 11.4696 14.4563 10.9609 14.0812 10.5858C13.7061 10.2107 13.1974 10 12.667 10C12.1366 10 11.6279 10.2107 11.2528 10.5858C10.8777 10.9609 10.667 11.4696 10.667 12C10.667 12.5304 10.8777 13.0391 11.2528 13.4142C11.6279 13.7893 12.1366 14 12.667 14Z" fill="white"/>
</svg>
