<svg width="367" height="114" viewBox="0 0 367 114" fill="none" xmlns="http://www.w3.org/2000/svg">
<path d="M132.625 110.375C132.625 108.43 134.272 106.794 136.23 106.794C137.12 106.794 138.01 107.192 138.633 107.855L138.188 108.474C137.699 107.944 136.987 107.59 136.23 107.59C134.806 107.59 133.471 108.784 133.471 110.375C133.471 111.966 134.806 113.16 136.275 113.16C137.076 113.16 137.743 112.806 138.233 112.276L138.678 112.895C138.099 113.47 137.298 113.912 136.275 113.912C134.272 113.956 132.625 112.364 132.625 110.375Z" fill="white"/>
<path d="M139.346 110.375C139.346 108.386 140.948 106.794 142.951 106.794C144.954 106.794 146.556 108.386 146.556 110.375C146.556 112.32 144.954 113.956 142.951 113.956C140.992 113.956 139.346 112.364 139.346 110.375ZM145.755 110.375C145.755 108.828 144.509 107.59 142.951 107.59C141.393 107.59 140.147 108.828 140.147 110.375C140.147 111.922 141.393 113.16 142.951 113.16C144.509 113.16 145.755 111.922 145.755 110.375Z" fill="white"/>
<path d="M153.766 106.883V113.956H153.721L148.914 108.651V113.867H148.113V106.794H148.158L152.965 112.099V106.883H153.766Z" fill="white"/>
<path d="M159.997 107.678H157.949V113.867H157.193V107.678H155.146V106.883H159.997V107.678Z" fill="white"/>
<path d="M165.116 112.718H161.288L160.754 113.867H159.908L163.157 106.794H163.246L166.495 113.867H165.65L165.116 112.718ZM164.804 112.055L163.202 108.474L161.599 112.055H164.804Z" fill="white"/>
<path d="M172.593 111.745C172.593 112.851 171.703 113.867 170.368 113.867H167.786V106.927H169.7C170.857 106.927 171.703 107.767 171.703 108.651C171.703 109.402 171.169 109.933 170.813 109.933C171.703 109.933 172.593 110.684 172.593 111.745ZM168.587 107.678V109.8H169.744C170.501 109.8 170.991 109.358 170.991 108.739C170.991 108.165 170.412 107.678 169.744 107.678H168.587ZM171.836 111.701C171.836 111.038 171.213 110.463 170.279 110.508H168.587V113.116H170.323C171.124 113.072 171.836 112.497 171.836 111.701Z" fill="white"/>
<path d="M174.017 106.883H174.818V113.823H174.017V106.883Z" fill="white"/>
<path d="M180.916 113.072V113.867H176.688V106.927H177.489V113.116H180.916V113.072Z" fill="white"/>
<path d="M182.34 106.883H183.141V113.823H182.34V106.883Z" fill="white"/>
<path d="M190.574 110.375C190.574 112.497 189.194 113.867 187.013 113.867H185.055V106.927H187.013C189.194 106.883 190.574 108.253 190.574 110.375ZM189.772 110.375C189.772 108.739 188.704 107.678 186.969 107.678H185.811V113.072H186.969C188.704 113.072 189.772 112.011 189.772 110.375Z" fill="white"/>
<path d="M196.048 112.718H192.221L191.686 113.867H190.841L194.09 106.794H194.179L197.428 113.867H196.582L196.048 112.718ZM195.737 112.055L194.134 108.474L192.532 112.055H195.737Z" fill="white"/>
<path d="M204.238 110.375C204.238 112.497 202.858 113.867 200.677 113.867H198.719V106.927H200.677C202.858 106.883 204.238 108.253 204.238 110.375ZM203.437 110.375C203.437 108.739 202.368 107.678 200.633 107.678H199.475V113.072H200.633C202.368 113.072 203.437 112.011 203.437 110.375Z" fill="white"/>
<path d="M206.596 107.678V109.889H209.489V110.684H206.596V113.116H209.935V113.912H205.84V106.971H209.935V107.722H206.596V107.678Z" fill="white"/>
<path d="M220.526 113.912C220.037 113.912 219.414 113.602 218.702 113.116C218.168 113.646 217.455 113.956 216.654 113.956C215.141 113.956 214.251 112.895 214.251 111.745C214.251 110.861 214.785 110.11 215.542 109.712C215.275 109.226 215.141 108.784 215.141 108.386C215.141 107.546 215.898 106.75 216.877 106.75C217.812 106.75 218.524 107.457 218.613 108.297L217.856 108.43C217.812 107.855 217.411 107.457 216.877 107.457C216.343 107.457 215.942 107.899 215.942 108.386C215.942 109.314 217.233 110.95 218.524 112.011C218.791 111.569 218.924 110.994 218.969 110.331H219.725C219.725 111.215 219.503 111.966 219.191 112.541C219.725 112.895 220.215 113.16 220.571 113.16V113.912H220.526ZM218.079 112.63C217.277 111.967 216.476 111.127 215.942 110.287C215.319 110.64 215.052 111.171 215.052 111.701C215.052 112.497 215.631 113.16 216.654 113.16C217.188 113.204 217.678 113.027 218.079 112.63Z" fill="white"/>
<path d="M224.978 106.883H227.203C228.538 106.883 229.651 107.899 229.651 109.137C229.651 110.331 228.538 111.303 227.203 111.303H225.779V113.867H224.978V106.883ZM228.894 109.137C228.894 108.341 228.138 107.678 227.203 107.678H225.779V110.508H227.203C228.138 110.508 228.894 109.889 228.894 109.137Z" fill="white"/>
<path d="M235.303 113.072V113.867H231.075V106.927H231.876V113.116H235.303V113.072Z" fill="white"/>
<path d="M241.401 112.718H237.573L237.039 113.867H236.193L239.442 106.794H239.531L242.78 113.867H241.935L241.401 112.718ZM241.089 112.055L239.487 108.474L237.885 112.055H241.089Z" fill="white"/>
<path d="M249.679 106.883V113.956H249.634L244.828 108.651V113.867H244.026V106.794H244.071L248.878 112.099V106.883H249.679Z" fill="white"/>
<path d="M252.394 107.678V109.889H255.287V110.684H252.394V113.116H255.732V113.912H251.638V106.971H255.732V107.722H252.394V107.678Z" fill="white"/>
<path d="M256.89 113.514L257.29 112.806C257.557 113.027 258.047 113.204 258.447 113.204H258.492C259.605 113.204 260.495 112.276 260.495 111.171V106.883H261.296V111.171C261.296 112.718 260.05 113.956 258.492 113.956H258.447C257.958 113.956 257.335 113.779 256.89 113.514Z" fill="white"/>
<path d="M267.081 112.718H263.254L262.72 113.867H261.874L265.123 106.794H265.212L268.461 113.867H267.615L267.081 112.718ZM266.77 112.055L265.168 108.474L263.565 112.055H266.77Z" fill="white"/>
<path d="M276.606 106.75V113.823H275.805V109.137L273.179 113.735L270.553 109.137V113.867H269.752V106.794H269.841L273.179 112.32L276.517 106.794H276.606V106.75Z" fill="white"/>
<path d="M279.321 107.678V109.889H282.214V110.684H279.321V113.116H282.659V113.912H278.564V106.971H282.659V107.722H279.321V107.678Z" fill="white"/>
<path d="M290.003 106.883V113.956H289.958L285.152 108.651V113.867H284.351V106.794H284.395L289.202 112.099V106.883H290.003Z" fill="white"/>
<path d="M296.234 107.678H294.186V113.867H293.385V107.678H291.338V106.883H296.189V107.678H296.234Z" fill="white"/>
<path d="M296.946 110.375C296.946 108.386 298.549 106.794 300.551 106.794C302.554 106.794 304.156 108.386 304.156 110.375C304.156 112.32 302.554 113.956 300.551 113.956C298.549 113.956 296.946 112.364 296.946 110.375ZM303.355 110.375C303.355 108.828 302.109 107.59 300.551 107.59C298.994 107.59 297.747 108.828 297.747 110.375C297.747 111.922 298.994 113.16 300.551 113.16C302.065 113.16 303.355 111.922 303.355 110.375Z" fill="white"/>
<path d="M313.102 107.678H311.055V113.867H310.253V107.678H308.206V106.883H313.057V107.678H313.102Z" fill="white"/>
<path d="M318.577 113.867L316.618 111.171H315.327V113.867H314.526V106.927H316.574C317.864 106.927 318.933 107.899 318.933 109.137C318.933 110.021 318.309 110.817 317.464 111.082L319.556 113.867H318.577ZM316.574 110.463C317.419 110.463 318.087 109.844 318.087 109.093C318.087 108.297 317.375 107.678 316.574 107.678H315.283V110.463H316.574Z" fill="white"/>
<path d="M320.802 106.883H321.603V113.823H320.802V106.883Z" fill="white"/>
<path d="M328.323 111.745C328.323 112.851 327.433 113.867 326.098 113.867H323.517V106.927H325.43C326.588 106.927 327.433 107.767 327.433 108.651C327.433 109.402 326.899 109.933 326.543 109.933C327.433 109.933 328.323 110.684 328.323 111.745ZM324.273 107.678V109.8H325.43C326.187 109.8 326.677 109.358 326.677 108.739C326.677 108.165 326.098 107.678 325.43 107.678H324.273ZM327.567 111.701C327.567 111.038 326.944 110.463 326.009 110.508H324.318V113.116H326.054C326.855 113.072 327.567 112.497 327.567 111.701Z" fill="white"/>
<path d="M329.658 111.171V106.927H330.459V111.171C330.459 112.32 331.216 113.204 332.24 113.204C333.263 113.204 334.02 112.364 334.02 111.171V106.927H334.821V111.171C334.821 112.806 333.708 114 332.24 114C330.771 113.956 329.658 112.762 329.658 111.171Z" fill="white"/>
<path d="M341.052 107.678H339.005V113.867H338.204V107.678H336.156V106.883H341.008V107.678H341.052Z" fill="white"/>
<path d="M347.017 112.718H343.189L342.655 113.867H341.81L345.059 106.794H345.148L348.397 113.867H347.551L347.017 112.718ZM346.705 112.055L345.103 108.474L343.501 112.055H346.705ZM345.059 106.352H344.48L345.415 104.938H346.127L345.059 106.352Z" fill="white"/>
<path d="M353.737 113.867L351.778 111.171H350.488V113.867H349.687V106.927H351.734C353.025 106.927 354.093 107.899 354.093 109.137C354.093 110.021 353.47 110.817 352.624 111.082L354.716 113.867H353.737ZM351.778 110.463C352.624 110.463 353.292 109.844 353.292 109.093C353.292 108.297 352.58 107.678 351.778 107.678H350.488V110.463H351.778Z" fill="white"/>
<path d="M355.963 106.883H356.764V113.823H355.963V106.883Z" fill="white"/>
<path d="M358.321 110.375C358.321 108.386 359.924 106.794 361.926 106.794C363.929 106.794 365.531 108.386 365.531 110.375C365.531 112.32 363.929 113.956 361.926 113.956C359.924 113.956 358.321 112.364 358.321 110.375ZM364.73 110.375C364.73 108.828 363.484 107.59 361.926 107.59C360.369 107.59 359.122 108.828 359.122 110.375C359.122 111.922 360.369 113.16 361.926 113.16C363.44 113.16 364.73 111.922 364.73 110.375Z" fill="white"/>
<path d="M159.373 85.7074C157.549 91.3217 153.365 94.4163 147.579 94.4163C140.458 94.4163 133.203 88.7577 133.203 77.9711C133.203 68.2896 138.856 61.5701 146.956 61.5701C152.875 61.5701 157.059 64.753 158.394 70.2348L158.439 70.4116H159.418V64.0015L159.329 63.9573C156.302 61.6585 151.674 60.2439 146.956 60.2439C136.764 60.2439 129.331 67.7149 129.331 77.9711C129.331 88.0946 137.164 95.6983 147.579 95.6983C152.386 95.6983 156.302 94.4605 159.329 92.029L159.373 91.9849L160.397 85.5748H159.418L159.373 85.7074Z" fill="#D6C7B4"/>
<path d="M181.805 60.2439C171.435 60.2439 163.602 67.8476 163.602 77.9711C163.602 88.0946 171.435 95.6983 181.805 95.6983C192.22 95.6983 200.053 88.0946 200.053 77.9711C200.009 67.8476 192.175 60.2439 181.805 60.2439ZM196.136 77.9711C196.136 88.7577 188.926 94.4163 181.761 94.4163C174.595 94.4163 167.429 88.7577 167.429 77.9711C167.429 67.1845 174.639 61.5701 181.805 61.5701C188.971 61.5701 196.136 67.1845 196.136 77.9711Z" fill="#D6C7B4"/>
<path d="M228.271 61.791H228.494C230.051 61.9236 230.585 62.6309 230.585 64.576V89.8185L207.976 60.8184L207.887 60.73H203.48V61.791H203.703C205.261 61.9236 205.795 62.6309 205.795 64.576V91.3216C205.795 93.3109 205.261 94.0182 203.703 94.1508H203.48V95.1676H209.489V94.1508H209.266C207.664 94.0182 207.13 93.3109 207.13 91.3216V66.0791L229.873 95.1676H231.921V64.5318C231.921 62.5867 232.455 61.8794 234.012 61.7468H234.235V60.6858H228.271V61.791Z" fill="#D6C7B4"/>
<path d="M258.891 62.1004C262.674 62.1004 264.099 64.8855 264.944 67.3611L264.989 67.4937H266.013L265.033 60.73H238.463L237.483 67.4937H238.507L238.552 67.3611C239.397 64.9297 240.821 62.1004 244.605 62.1004H249.901V91.3658C249.901 93.3551 249.367 94.0624 247.809 94.195H247.587V95.2118H255.909V94.195H255.687C254.129 94.0624 253.595 93.3551 253.595 91.3658V62.1004H258.891Z" fill="#D6C7B4"/>
<path d="M273.935 57.9892C274.069 57.9892 274.247 57.945 274.336 57.9008C276.027 57.2819 277.852 56.5746 280.033 55.6462C280.656 55.4252 281.012 55.0715 281.19 54.6736C281.324 54.2758 281.324 53.8337 281.057 53.3474C280.834 52.9053 280.478 52.5959 280.077 52.5075C279.632 52.4191 279.098 52.5517 278.609 52.9053C276.695 54.1431 275.004 55.2483 273.535 56.3535C273.357 56.4861 272.867 56.8398 273.223 57.4587C273.446 57.8566 273.668 57.9892 273.935 57.9892Z" fill="#D6C7B4"/>
<path d="M292.183 91.2331L279.365 60.6858H274.737V61.7468L274.915 61.791C275.538 61.8794 275.983 62.1446 276.205 62.5425C276.561 63.1172 276.517 63.9571 276.116 64.9739L266.013 91.2331C265.301 93.1341 264.277 94.0182 262.72 94.1508H262.497V95.1676H269.351V94.1508H269.129C268.239 94.0624 267.615 93.7972 267.348 93.3551C267.037 92.913 267.081 92.2499 267.393 91.3658L270.419 83.5853H285.062L288.4 91.3658C288.712 92.1173 288.712 92.7804 288.445 93.2225C288.133 93.7088 287.51 94.0182 286.665 94.1066H286.442V95.1234H295.744V94.1066H295.521C294.053 94.0624 292.985 93.1341 292.183 91.2331ZM284.573 82.259H271.042L277.496 65.416L284.573 82.259Z" fill="#D6C7B4"/>
<path d="M315.995 76.7773C319.377 75.8047 322.359 73.1523 322.359 69.262C322.359 63.7361 317.775 60.73 309.408 60.73H298.771V61.791H298.993C300.595 61.9236 301.129 62.6309 301.129 64.576V91.3216C301.129 93.3109 300.595 94.0182 298.993 94.1508H298.771V95.1676H311.188C320.757 95.1676 325.786 91.9405 325.786 85.7956C325.786 80.9328 322.092 77.573 315.995 76.7773ZM309.141 62.1004C315.416 62.1004 318.843 64.6644 318.843 69.262C318.843 74.0364 315.683 76.4236 309.408 76.4236H304.824V62.1004H309.141ZM304.868 77.7941H310.921C318.354 77.7941 322.092 80.4907 322.092 85.8398C322.092 92.913 316.707 93.8856 310.921 93.8856H304.868V77.7941Z" fill="#D6C7B4"/>
<path d="M329.258 61.791H329.48C331.083 61.9236 331.617 62.6309 331.617 64.576V91.3216C331.617 93.3109 331.083 94.0182 329.48 94.1508H329.258V95.1676H337.625V94.1508H337.403C335.8 94.0182 335.266 93.3109 335.266 91.3216V64.576C335.266 62.6309 335.8 61.9236 337.403 61.791H337.625V60.73H329.258V61.791Z" fill="#D6C7B4"/>
<path d="M365.931 88.8017L365.887 88.9343C365.086 91.0563 363.617 93.8856 359.879 93.8856H348.129V64.576C348.129 62.6309 348.663 61.9236 350.22 61.791H350.443V60.73H342.12V61.791H342.343C343.9 61.9236 344.434 62.6309 344.434 64.576V91.3216C344.434 93.3109 343.9 94.0182 342.343 94.1508H342.12V95.1676H365.931L367 88.7575H365.931V88.8017Z" fill="#D6C7B4"/>
<path d="M179.98 50.5623V51.4022H167.429V50.5623C170.011 50.3412 171.257 48.7056 170.189 46.23L165.382 35.0013H144.196L139.835 46.23C138.811 49.0592 140.057 50.3855 142.594 50.5623V51.4022H133.515V50.5623C136.141 50.3412 137.52 48.573 138.455 46.23L152.742 9.00727C153.854 6.08957 152.875 4.32127 150.739 4.05602V3.17188H156.747L174.862 46.2742C175.841 48.5729 177.31 50.3412 179.98 50.5623ZM164.803 33.675L154.3 8.69781H154.211L144.641 33.675H164.803Z" fill="#D6C7B4"/>
<path d="M222.529 38.4494C222.529 47.4678 214.473 51.4022 202.1 51.4022H184.831V50.5623C187.457 50.3413 188.169 48.9708 188.169 46.23V8.29995C188.169 5.6033 187.457 4.23287 184.831 4.01183V3.12769H199.607C210.734 3.12769 217.677 7.06214 217.677 14.9311C217.677 20.8107 212.559 24.922 206.862 25.6735C216.209 26.204 222.529 30.7573 222.529 38.4494ZM192.798 25.4082H199.607C208.42 25.4082 213.271 21.9601 213.271 14.9311C213.271 8.29995 208.42 4.45391 199.162 4.45391H192.798V25.4082ZM217.855 38.4494C217.855 29.4753 210.423 26.7345 201.699 26.7345H192.798V50.1644H201.699C210.779 50.1644 217.855 48.3077 217.855 38.4494Z" fill="#D6C7B4"/>
<path d="M271.042 3.12769V4.01183C268.46 4.23287 267.793 5.6033 267.793 8.29995V51.4022H265.345L232.632 9.53777V46.23C232.632 48.9708 233.344 50.3855 235.97 50.5623V51.4022H228.048V50.5623C230.629 50.3413 231.297 48.9708 231.297 46.23V8.29995C231.297 5.6033 230.585 4.23287 228.048 4.01183V3.12769H233.789L266.413 44.9922V8.29995C266.413 5.6033 265.701 4.23287 263.164 4.01183V3.12769H271.042Z" fill="#D6C7B4"/>
<path d="M51.3104 3.83499C80.6407 3.83499 104.452 27.3534 104.719 56.3977V53.7894C104.719 53.1705 104.719 52.5516 104.719 51.8885L104.541 50.0318C104.408 48.794 104.319 47.512 104.14 46.2742L103.384 42.5607C103.206 41.2787 102.716 40.1293 102.36 38.8915C101.96 37.6979 101.648 36.4159 101.114 35.2665L99.6008 31.7299C99.0222 30.5805 98.3991 29.4753 97.776 28.3259C95.1945 23.861 92.079 19.6171 88.2514 16.0363L86.8717 14.6658L85.3584 13.428C84.3348 12.5881 83.3556 11.7039 82.2874 10.9524L78.9939 8.74202C77.9257 7.94629 76.6795 7.4158 75.5223 6.75269C74.3651 6.08958 73.1634 5.47067 71.9172 4.98439L68.2231 3.43713C65.6417 2.6856 63.1048 1.71304 60.4344 1.27096C59.0991 1.04993 57.7639 0.652057 56.4287 0.563643L52.3785 0.165778C49.6636 -0.0552593 46.9042 -0.0552593 44.1892 0.165778C33.2404 0.917305 22.3806 4.94018 13.3012 11.6155L13.2567 11.6597C13.0786 11.7923 12.9006 11.925 12.7226 12.1018C10.1857 14.4448 9.96313 18.2908 12.144 20.8991C21.8911 10.3777 35.8218 3.83499 51.3104 3.83499Z" fill="white"/>
<path d="M104.719 56.4418C104.452 27.3533 80.6408 3.87915 51.3105 3.87915C35.822 3.87915 21.8912 10.4219 12.0996 20.899C12.1886 20.9874 12.2331 21.1201 12.3221 21.2085C14.77 23.8167 18.8647 23.9935 21.4906 21.5621C27.9887 15.5941 36.3116 11.3502 45.302 9.75875C47.5719 9.36088 49.8418 9.09564 52.1561 9.05143L55.6277 9.00722C56.7849 8.96301 57.9421 9.18405 59.0993 9.27247C61.4582 9.36088 63.6835 9.97979 65.9979 10.3777L69.3805 11.3944C70.5377 11.7039 71.6058 12.146 72.7185 12.588C73.7867 13.0743 74.9439 13.428 75.9675 14.0027L79.1275 15.6825C80.1957 16.2572 81.1304 16.9646 82.154 17.6277L83.6673 18.6002L85.047 19.7054C88.8746 22.5789 92.1682 26.2039 95.0166 30.0942C95.6842 31.111 96.3964 32.0835 97.064 33.1003L98.8443 36.2832C99.4674 37.3442 99.9124 38.4936 100.402 39.5988C100.847 40.7482 101.47 41.8534 101.782 43.0028L102.894 46.5394C103.25 47.733 103.429 48.9708 103.696 50.1644L104.096 51.9769C104.185 52.5958 104.23 53.2147 104.319 53.8336L104.719 57.547C104.719 57.547 104.719 57.547 104.719 57.5028V56.4418Z" fill="#D6C7B4"/>
<path d="M111.351 50.5182C107.256 79.3857 80.507 99.5442 51.4883 95.7424L54.0697 96.0961C54.6928 96.1845 55.3159 96.2729 55.939 96.3613L57.8528 96.4497C59.099 96.4939 60.3897 96.5823 61.6804 96.5381L65.5081 96.3171C66.7988 96.3171 68.045 96.0077 69.2912 95.8308C70.5374 95.6098 71.8281 95.4771 73.0743 95.1235L76.8129 94.1509C78.0146 93.7531 79.2163 93.2668 80.4625 92.8247C85.2693 90.9238 89.9426 88.4482 94.0372 85.1768L95.595 83.9832L97.0637 82.657C98.0429 81.7728 99.0665 80.9329 99.9567 79.9603L102.627 77.0426C103.562 76.0701 104.274 74.9649 105.075 73.9039C105.876 72.8429 106.677 71.782 107.345 70.6326L109.392 67.1844C110.505 64.753 111.84 62.41 112.641 59.8459C113.042 58.5639 113.62 57.3261 113.932 55.9999L114.911 52.0654C115.534 49.413 115.89 46.7163 116.068 44.0197C116.869 33.1446 114.333 21.9159 108.947 12.0577L108.903 12.0135C108.814 11.8366 108.68 11.6156 108.547 11.4388C106.588 8.60949 102.761 7.85796 99.8677 9.62626C108.903 20.6781 113.487 35.3108 111.351 50.5182Z" fill="white"/>
<path d="M51.4884 95.7424C80.5071 99.5442 107.256 79.3856 111.351 50.5182C113.487 35.2666 108.903 20.6781 99.8233 9.58203C99.7343 9.67045 99.6007 9.71466 99.4672 9.75887C96.5297 11.7924 95.8176 15.8153 97.8205 18.733C102.85 25.9388 105.965 34.7361 106.277 43.7986C106.366 46.0532 106.321 48.352 106.054 50.6508L105.609 54.0548C105.476 55.2041 105.12 56.3093 104.853 57.4145C104.408 59.7133 103.473 61.8353 102.761 64.0456L101.292 67.2286C100.847 68.3338 100.224 69.3063 99.6453 70.3231C99.0222 71.2957 98.5326 72.4008 97.7759 73.3292L95.6841 76.2027C94.972 77.1752 94.1264 77.971 93.3252 78.8993L92.1235 80.2255L90.7883 81.4634C87.3612 84.8232 83.3111 87.564 79.0384 89.8628C77.9257 90.3933 76.8575 90.968 75.7449 91.4543L72.3178 92.7363C71.1606 93.2226 69.9589 93.4878 68.8017 93.7972C67.6 94.1067 66.4428 94.5046 65.1966 94.6814L61.5025 95.3003C60.2563 95.4771 59.0101 95.4771 57.7639 95.6098L55.8946 95.7424C55.2715 95.7424 54.6484 95.6982 54.0253 95.6982L50.2422 95.5655C50.2422 95.5655 50.2422 95.5655 50.2867 95.5655L51.4884 95.7424Z" fill="#D6C7B4"/>
<path d="M55.8939 103.744C27.6763 95.6981 11.3421 66.6096 19.1309 38.582L18.4188 41.0577C18.2407 41.6766 18.0627 42.2513 17.9292 42.8702L17.5731 44.7269C17.3506 45.9647 17.0835 47.2025 16.95 48.4403L16.6385 52.2421C16.4604 53.5242 16.594 54.762 16.594 56.044C16.6385 57.326 16.594 58.608 16.8165 59.8458L17.2616 63.6477C17.4841 64.8855 17.7957 66.1675 18.0627 67.4053C19.3089 72.4007 21.0892 77.3078 23.8041 81.8169L24.7833 83.541L25.896 85.1767C26.6526 86.2377 27.3647 87.3871 28.1659 88.4038L30.7028 91.4542C31.5484 92.5151 32.5721 93.3551 33.4622 94.2835C34.3969 95.2118 35.376 96.1844 36.4442 96.9801L39.6042 99.4999C41.8741 100.915 44.055 102.55 46.5028 103.7C47.7045 104.274 48.8617 105.026 50.1524 105.512L53.9356 107.015C56.4725 107.988 59.0984 108.739 61.8134 109.27C72.5396 111.569 84.1115 110.64 94.6597 106.706L94.7487 106.662C94.9713 106.573 95.1938 106.485 95.3718 106.396C98.4428 104.849 99.7335 101.224 98.3538 98.1295C86.0253 105.468 70.8038 107.988 55.8939 103.744Z" fill="white"/>
<path d="M19.1305 38.5378C11.2972 66.5653 27.6759 95.6539 55.8935 103.7C70.8034 107.944 86.0249 105.468 98.3089 98.0853C98.2644 97.9526 98.2199 97.8642 98.1754 97.7316C96.5731 94.5487 92.6565 93.2666 89.4519 94.9023C81.5296 98.881 72.3612 100.694 63.2817 99.7209C61.0118 99.4999 58.7419 99.1462 56.5166 98.5273L53.1785 97.599C52.0658 97.2895 50.9977 96.8033 49.9295 96.4054C47.7041 95.6539 45.7013 94.4603 43.6095 93.4435L40.6275 91.5426C39.6038 90.9679 38.7137 90.2163 37.779 89.4648C36.8889 88.7133 35.8652 88.0502 35.0641 87.2102L32.4826 84.7346C31.637 83.8947 30.9249 82.9663 30.1238 82.0822L28.9666 80.7117L27.9429 79.2529C25.0499 75.4068 22.9136 71.0745 21.2223 66.5211C20.8217 65.3717 20.4212 64.2223 20.0651 63.073L19.264 59.4922C18.9524 58.2986 18.8634 57.1049 18.6854 55.8671C18.5519 54.6293 18.2848 53.4357 18.3293 52.1979L18.2403 48.4845C18.2403 47.2467 18.4184 46.0089 18.4629 44.7711L18.5964 42.9144C18.6854 42.2955 18.8189 41.6765 18.9079 41.0576L19.5755 37.3884C19.5755 37.3884 19.5755 37.3884 19.5755 37.4326L19.1305 38.5378Z" fill="#D6C7B4"/>
<path d="M9.7402 44.8594C21.6681 18.2465 52.9568 6.17789 79.8391 17.7602L77.4357 16.6993C76.8572 16.434 76.2786 16.1688 75.7 15.9478L73.9197 15.373C72.718 14.9752 71.5163 14.5331 70.2701 14.2236L66.5315 13.3837C65.2853 13.03 63.9946 12.9858 62.7484 12.809C61.4576 12.6764 60.2114 12.4554 58.9207 12.4554L55.0486 12.3669C53.7579 12.4112 52.4672 12.5438 51.1765 12.6322C46.0581 13.1627 40.8508 14.2237 35.9995 16.2572L34.1747 16.9645L32.3944 17.8487C31.2372 18.4676 29.991 18.9539 28.8783 19.6612L25.4958 21.7389C24.3386 22.402 23.3594 23.2862 22.2912 24.0819C21.2231 24.8777 20.1549 25.6734 19.2202 26.6017L16.2828 29.3426C14.547 31.3762 12.6332 33.2771 11.1199 35.5317C10.3633 36.6368 9.47316 37.6978 8.80555 38.8472L6.80273 42.3838C5.46751 44.771 4.39933 47.2466 3.46468 49.8107C-0.318437 60.0668 -1.03055 71.5607 1.46185 82.48V82.5684C1.50636 82.7894 1.59537 83.0105 1.63988 83.2315C2.75256 86.4587 6.22413 88.227 9.47316 87.3428C3.77623 74.2132 3.42017 58.8732 9.7402 44.8594Z" fill="white"/>
<path d="M79.7942 17.7602C52.9563 6.17789 21.6232 18.2023 9.69527 44.8594C3.37524 58.9174 3.73129 74.2132 9.38371 87.3428C9.51723 87.2986 9.65076 87.2986 9.73977 87.2544C13.1223 86.105 14.9471 82.4358 13.7899 79.076C10.9415 70.765 10.4074 61.4814 12.6327 52.6399C13.1668 50.4296 13.8789 48.2192 14.7691 46.1414L16.1488 42.9585C16.5939 41.8975 17.2615 40.925 17.7956 39.9082C18.8193 37.8304 20.3325 36.0179 21.6232 34.117L23.9376 31.4646C24.6942 30.5362 25.5399 29.7405 26.3855 28.9447C27.2756 28.149 28.0323 27.2649 29.0114 26.5575L31.8154 24.3914C32.75 23.684 33.8182 23.1093 34.7974 22.4462L36.3106 21.4737L37.9129 20.6779C42.1411 18.3792 46.7698 16.8761 51.5321 15.8593C52.7338 15.6383 53.9355 15.4173 55.1372 15.1962L58.7868 14.8868C60.033 14.7099 61.2347 14.7984 62.4809 14.7984C63.7271 14.8426 64.9733 14.7541 66.175 14.931L69.8691 15.3288C71.1153 15.5057 72.317 15.8151 73.5187 16.0804L75.3435 16.4782C75.9666 16.6551 76.5452 16.8319 77.1238 17.0529L80.6844 18.2023C80.6844 18.2023 80.6844 18.2023 80.6398 18.2023L79.7942 17.7602Z" fill="#D6C7B4"/>
</svg>
